HIERARCHY
ROOT Hips
{
	OFFSET 0.00000 0.00000 0.00000
	CHANNELS 6 Xposition Yposition Zposition Yrotation Zrotation Xrotation 
	JOINT Lumbar
	{
		OFFSET 0 0 0
		CHANNELS 3 Zrotation Xrotation Yrotation
		JOINT Neck
		{
			OFFSET 0.00 0.2701 0.00
			CHANNELS 3 Zrotation Xrotation Yrotation
			End Site
			{
				OFFSET 0.00 0.1379 0.00
			}
		}
		JOINT RightShoulder
		{
			OFFSET 0.0119 0.2289 0.1181
			CHANNELS 3 Zrotation Xrotation Yrotation
			JOINT RightElbow
			{
				OFFSET 0.00 -0.1475 0.00
				CHANNELS 2 Zrotation Yrotation
				JOINT RightWrist
				{
					OFFSET 0.00 -0.1605 0.00
					CHANNELS 2 Zrotation Xrotation
					End Site
					{
						OFFSET 0.0040 -0.1068 0.0006
					}
				}
			}
		}
		JOINT LeftShoulder
		{
			OFFSET 0.0119 0.2289 -0.1181
			CHANNELS 3 Zrotation Xrotation Yrotation
			JOINT LeftElbow
			{
				OFFSET 0.00 -0.1475 0.00
				CHANNELS 2 Zrotation Yrotation
				JOINT LeftWrist
				{
					OFFSET 0.00 -0.1605 0.00
					CHANNELS 2 Zrotation Xrotation
					End Site
					{
						OFFSET 0.0040 -0.1068 -0.0006
					}
				}
			}
		}
	}
	JOINT RightHip
	{
		OFFSET 0.0316 -0.0424 0.0458
		CHANNELS 3 Zrotation Xrotation Yrotation
		JOINT RightKnee
		{
			OFFSET 0.00 -0.2438 0.00
			CHANNELS 1 Zrotation
			JOINT RightAnkle
			{
				OFFSET 0.00 -0.2449 0.00
				CHANNELS 3 Zrotation Xrotation Yrotation
				End Site
				{
					OFFSET 0.1237 -0.0542 0.0051
				}
			}
		}
	}
	JOINT LeftHip
	{
		OFFSET 0.0316 -0.0424 -0.0458
		CHANNELS 3 Zrotation Xrotation Yrotation
		JOINT LeftKnee
		{
			OFFSET 0.00 -0.2438 0.00
			CHANNELS 1 Zrotation
			JOINT LeftAnkle
			{
				OFFSET 0.00 -0.2449 0.00
				CHANNELS 3 Zrotation Xrotation Yrotation
				End Site
				{
					OFFSET 0.1237 -0.0542 -0.0051
				}
			}
		}
	}
}
MOTION
Frames: 22
Frame Time: 0.02
-0.00029 -0.00012 0.00026 -150.36549 -27.40902 0.85035 43.9913 -1.92776 -8.81589 -12.37325 6.90087 -0.40935 -20.22327 -6.11574 -2.73215 22.96891 99.95773 10.70371 1.24901 -23.73423 8.53581 -4.95144 30.56268 -110.08802 18.88273 -1.36026 26.34829 -2.46849 -4.48299 -20.20492 -6.51579 -4.73236 -3.12979 31.06464 3.78996 -1.09159 -24.34059 -6.57141 4.1294 2.75245
-0.00034 -9e-05 0.00015 -150.26939 -27.45695 0.86677 43.98726 -1.95341 -8.81856 -12.39183 6.87461 -0.40958 -20.43353 -6.1918 -2.5183 23.48837 99.92398 10.67563 1.24879 -23.71368 8.49452 -4.79958 30.53279 -109.995 18.76382 -1.36797 26.39498 -2.48203 -4.63403 -20.19764 -6.50977 -4.72466 -3.12557 31.14609 3.79776 -1.09549 -24.33995 -6.56738 4.10923 2.74562
-0.00038 -6e-05 4e-05 -150.17349 -27.50477 0.88317 43.98323 -1.97901 -8.82131 -12.41045 6.84836 -0.40982 -20.64361 -6.26783 -2.3048 24.00743 99.89025 10.64757 1.24858 -23.69329 8.45329 -4.64802 30.503 -109.90206 18.64509 -1.37566 26.44157 -2.49554 -4.78467 -20.19038 -6.50378 -4.71697 -3.12137 31.22734 3.80563 -1.09901 -24.33932 -6.56335 4.08908 2.73878
-0.00043 -3e-05 -7e-05 -150.07769 -27.55256 0.89954 43.9792 -2.00458 -8.82396 -12.42897 6.82218 -0.41006 -20.85323 -6.34367 -2.09155 24.5253 99.85663 10.61959 1.24836 -23.6728 8.41212 -4.49661 30.47318 -109.80932 18.52655 -1.38335 26.48813 -2.50904 -4.93526 -20.18312 -6.49778 -4.70928 -3.11717 31.30854 3.81342 -1.10284 -24.33868 -6.55933 4.06897 2.73196
-0.00048 -0 -0.00018 -149.98168 -27.60046 0.91593 43.97515 -2.0302 -8.82658 -12.44745 6.796 -0.4103 -21.06304 -6.41953 -1.87808 25.04365 99.82293 10.59157 1.24815 -23.65215 8.37089 -4.34492 30.4433 -109.71651 18.40781 -1.39106 26.53479 -2.52257 -5.08621 -20.17583 -6.49176 -4.70159 -3.11295 31.38993 3.82113 -1.10717 -24.33804 -6.55532 4.04886 2.72517
-0.00053 3e-05 -0.00029 -149.88601 -27.64812 0.93236 43.97118 -2.05577 -8.82963 -12.46641 6.76957 -0.41054 -21.27377 -6.49595 -1.66454 25.56443 99.78909 10.56337 1.24792 -23.63236 8.32968 -4.19362 30.41373 -109.62326 18.28905 -1.39873 26.58122 -2.53603 -5.23618 -20.16866 -6.48579 -4.69392 -3.10877 31.47091 3.82931 -1.10902 -24.33743 -6.55125 4.02859 2.71821
-0.00058 6e-05 -0.0004 -149.78985 -27.69619 0.94866 43.96701 -2.08137 -8.83163 -12.48424 6.74375 -0.41077 -21.48195 -6.57098 -1.45134 26.07839 99.75581 10.53572 1.24774 -23.61071 8.28851 -4.04182 30.38343 -109.5312 18.1707 -1.40645 26.62805 -2.54962 -5.38799 -20.16126 -6.47973 -4.68619 -3.10453 31.55258 3.83653 -1.11586 -24.33676 -6.54729 4.00869 2.7116
-0.00063 9e-05 -0.00052 -149.69401 -27.74392 0.96513 43.96314 -2.10702 -8.8349 -12.50336 6.71722 -0.41101 -21.69332 -6.64761 -1.2379 26.6011 99.72158 10.50729 1.2475 -23.59104 8.24722 -3.89027 30.35405 -109.43765 18.05155 -1.41415 26.67453 -2.5631 -5.53805 -20.15406 -6.47377 -4.67854 -3.10035 31.63367 3.84463 -1.11807 -24.33614 -6.54324 3.98841 2.70465
-0.00068 0.00011 -0.00063 -149.59901 -27.79111 0.98162 43.95919 -2.13244 -8.83856 -12.52311 6.69038 -0.41126 -21.90544 -6.72504 -1.02371 27.12516 99.68788 10.47897 1.24724 -23.57276 8.20609 -3.73975 30.32483 -109.34379 17.93303 -1.42173 26.72055 -2.57641 -5.68624 -20.14713 -6.46786 -4.67091 -3.09621 31.7139 3.85387 -1.11468 -24.33559 -6.53905 3.96781 2.69737
-0.00073 0.00015 -0.00074 -149.50052 -27.84104 0.99741 43.95435 -2.15831 -8.8365 -12.53641 6.667 -0.41148 -22.10377 -6.7944 -0.81246 27.61341 99.6562 10.45321 1.24725 -23.5434 8.16496 -3.58547 30.29175 -109.25622 17.81572 -1.42972 26.76914 -2.59057 -5.84602 -20.13874 -6.46146 -4.66293 -3.09175 31.79863 3.85675 -1.1437 -24.33468 -6.53558 3.94949 2.69223
-0.00077 0.00017 -0.00085 -149.40856 -27.8854 1.01506 43.95223 -2.18377 -8.8487 -12.56509 6.63527 -0.41175 -22.33719 -6.88293 -0.59596 28.19497 99.61704 10.42003 1.24658 -23.53935 8.12326 -3.43778 30.26872 -109.15254 17.69276 -1.437 26.81232 -2.60303 -5.98079 -20.13338 -6.45623 -4.65584 -3.08803 31.87413 3.87292 -1.10424 -24.33449 -6.53062 3.92607 2.68245
-0.00077 0.00017 -0.00097 -149.34139 -27.91239 1.03481 43.95052 -2.20366 -8.88264 -12.62204 6.58911 -0.41213 -22.61807 -7.00759 -0.35635 28.88964 99.58516 10.38394 1.24507 -23.58955 8.08462 -3.31942 30.25754 -109.02798 17.57997 -1.44112 26.84017 -2.60993 -6.05081 -20.13667 -6.45314 -4.65 -3.08569 31.92186 3.92702 -0.87586 -24.33668 -6.52139 3.89107 2.66088
-0.00076 0.00017 -0.00109 -149.27948 -27.93405 1.05697 43.95271 -2.224 -8.93416 -12.69703 6.53301 -0.41258 -22.94256 -7.15494 -0.11273 29.70421 99.54167 10.33793 1.2427 -23.66792 8.04461 -3.2057 30.2591 -108.88322 17.45714 -1.44471 26.86259 -2.61524 -6.09502 -20.14293 -6.45144 -4.64526 -3.08422 31.96069 3.99419 -0.57914 -24.33952 -6.51071 3.85057 2.63451
-0.00076 0.00017 -0.00121 -149.21065 -27.95965 1.07999 43.95787 -2.24697 -8.98893 -12.77289 6.47589 -0.41301 -23.27992 -7.30215 0.12291 30.55765 99.48403 10.28412 1.24003 -23.74343 8.00217 -3.08236 30.26543 -108.73209 17.32162 -1.44939 26.88793 -2.62192 -6.14848 -20.1476 -6.44982 -4.6408 -3.0828 32.00532 4.05447 -0.314 -24.34179 -6.50077 3.81095 2.60972
-0.00075 0.00016 -0.00133 -149.16096 -27.97929 1.09478 43.94353 -2.25779 -8.99611 -12.81052 6.44208 -0.41339 -23.48227 -7.40483 0.38308 31.01848 99.50413 10.27915 1.24022 -23.77733 7.97239 -2.99024 30.2283 -108.64531 17.25723 -1.45063 26.9117 -2.62603 -6.21226 -20.15329 -6.44519 -4.6331 -3.07951 32.04288 4.11887 -0.04546 -24.3452 -6.4904 3.77791 2.58738
-0.00075 0.00017 -0.00144 -149.07263 -28.00951 1.12724 43.97009 -2.29425 -9.10681 -12.93202 6.35745 -0.41388 -23.97252 -7.60765 0.59497 32.32384 99.36488 10.17399 1.23432 -23.90421 7.91617 -2.8348 30.28333 -108.4213 17.04442 -1.45873 26.93699 -2.63491 -6.24855 -20.15758 -6.44716 -4.63236 -3.0803 32.0926 4.17767 0.23087 -24.34641 -6.48071 3.73016 2.55892
-0.00081 0.0002 -0.0015 -148.87713 -28.07348 1.20809 44.11186 -2.39887 -9.49566 -13.28089 6.13433 -0.41465 -25.2773 -8.06367 0.65696 35.94323 98.74403 9.76276 1.2112 -24.28258 7.78539 -2.49841 30.60017 -107.81095 16.408 -1.48731 26.97 -2.65894 -6.21515 -20.15689 -6.46702 -4.6507 -3.09219 32.18011 4.21921 0.52403 -24.34107 -6.4722 3.64042 2.51355
-0.00089 0.00024 -0.00153 -148.64275 -28.14645 1.30637 44.29252 -2.52936 -9.98777 -13.71333 5.86079 -0.41554 -26.86383 -8.62257 0.67345 40.40395 97.97242 9.25795 1.18207 -24.75221 7.62865 -2.09929 31.00641 -107.06637 15.62698 -1.52239 27.00306 -2.68748 -6.15559 -20.15473 -6.49343 -4.67587 -3.1081 32.27843 4.25472 0.82103 -24.33356 -6.46462 3.53651 2.46238
-0.00096 0.00028 -0.00158 -148.4252 -28.21476 1.39683 44.45516 -2.65016 -10.43603 -14.10756 5.61037 -0.41637 -28.30259 -9.14657 0.72061 44.47491 97.29786 8.81565 1.15614 -25.1803 7.48464 -1.73181 31.3661 -106.39022 14.921 -1.55377 27.03621 -2.71297 -6.10738 -20.15348 -6.51687 -4.6979 -3.12221 32.37215 4.29163 1.10756 -24.32721 -6.45728 3.44099 2.41469
-0.00102 0.00032 -0.00161 -148.20997 -28.2904 1.48787 44.6256 -2.76388 -10.87581 -14.50404 5.35763 -0.41715 -29.82955 -9.62308 0.72446 48.59074 96.49876 8.2847 1.12835 -25.61389 7.3355 -1.35027 31.75517 -105.67841 14.16952 -1.58892 27.07379 -2.74285 -6.05819 -20.15135 -6.5405 -4.72047 -3.13648 32.46975 4.33328 1.43074 -24.32006 -6.44709 3.33737 2.36343
-0.0011 0.00036 -0.00168 -147.98236 -28.3466 1.58067 44.78121 -2.89645 -11.35266 -14.91466 5.09924 -0.41814 -31.23492 -10.22041 0.80927 52.79958 95.928 7.92126 1.10283 -26.05204 7.19232 -0.98434 32.09916 -105.01378 13.48586 -1.61696 27.09583 -2.76441 -6.00812 -20.15063 -6.56508 -4.74308 -3.15106 32.55506 4.36517 1.68082 -24.31414 -6.4431 3.24689 2.31809
-0.00119 0.00041 -0.00182 -147.71455 -28.40333 1.68407 44.9545 -3.09247 -11.94851 -15.35023 4.82604 -0.41891 -32.27046 -11.14501 1.11528 57.15717 95.99028 8.00153 1.08746 -26.52621 7.05987 -0.66585 32.34112 -104.47774 12.96259 -1.63147 27.13191 -2.76409 -5.93597 -20.15441 -6.59208 -4.76822 -3.16803 32.66526 4.35632 1.69842 -24.31185 -6.45587 3.20019 2.29225
